<svg xmlns="http://www.w3.org/2000/svg" xmlns:xlink="http://www.w3.org/1999/xlink" width="500" zoomAndPan="magnify" viewBox="0 0 375 374.999991" height="500" preserveAspectRatio="xMidYMid meet" version="1.0"><defs><clipPath id="ecad1a42c1"><path d="M 58.6875 7.6875 L 315.9375 7.6875 L 315.9375 366.9375 L 58.6875 366.9375 Z M 58.6875 7.6875 " clip-rule="nonzero"/></clipPath></defs><g clip-path="url(#ecad1a42c1)"><path fill="#8c52ff" d="M 261.464844 367.21875 L 113.648438 367.21875 C 83.417969 367.21875 58.820312 342.621094 58.820312 312.386719 L 58.820312 151.335938 C 58.820312 148.609375 61.03125 146.402344 63.753906 146.402344 C 66.480469 146.402344 68.6875 148.609375 68.6875 151.335938 L 68.6875 312.386719 C 68.6875 337.179688 88.859375 357.347656 113.648438 357.347656 L 261.460938 357.347656 C 286.253906 357.347656 306.425781 337.179688 306.425781 312.386719 L 306.425781 62.480469 C 306.425781 37.6875 286.253906 17.515625 261.460938 17.515625 L 113.648438 17.515625 C 88.859375 17.515625 68.6875 37.6875 68.6875 62.480469 L 68.6875 90.269531 C 68.6875 92.992188 66.480469 95.203125 63.753906 95.203125 C 61.03125 95.203125 58.820312 92.992188 58.820312 90.269531 L 58.820312 62.480469 C 58.820312 32.246094 83.417969 7.648438 113.648438 7.648438 L 261.460938 7.648438 C 291.699219 7.648438 316.292969 32.246094 316.292969 62.480469 L 316.292969 312.386719 C 316.296875 342.621094 291.699219 367.21875 261.464844 367.21875 Z M 261.464844 367.21875 " fill-opacity="1" fill-rule="nonzero"/></g><path fill="#67c3cf" d="M 106.585938 64.507812 L 268.527344 64.507812 L 268.527344 109.398438 L 106.585938 109.398438 Z M 106.585938 64.507812 " fill-opacity="1" fill-rule="nonzero"/><path fill="#67c3cf" d="M 146.722656 165.722656 C 146.722656 176.929688 145.246094 186.015625 134.042969 186.015625 L 112.394531 186.015625 C 101.191406 186.015625 99.546875 176.929688 99.546875 165.722656 C 99.546875 154.519531 101.191406 145.433594 112.394531 145.433594 L 134.042969 145.433594 C 145.246094 145.433594 146.722656 154.519531 146.722656 165.722656 Z M 146.722656 165.722656 " fill-opacity="1" fill-rule="nonzero"/><path fill="#67c3cf" d="M 211.144531 165.722656 C 211.144531 176.929688 209.671875 186.015625 198.464844 186.015625 L 176.820312 186.015625 C 165.617188 186.015625 163.96875 176.929688 163.96875 165.722656 C 163.96875 154.519531 165.617188 145.433594 176.820312 145.433594 L 198.464844 145.433594 C 209.667969 145.433594 211.144531 154.519531 211.144531 165.722656 Z M 211.144531 165.722656 " fill-opacity="1" fill-rule="nonzero"/><path fill="#67c3cf" d="M 275.570312 165.722656 C 275.570312 176.929688 274.09375 186.015625 262.886719 186.015625 L 241.242188 186.015625 C 230.035156 186.015625 228.394531 176.929688 228.394531 165.722656 C 228.394531 154.519531 230.035156 145.433594 241.242188 145.433594 L 262.886719 145.433594 C 274.09375 145.433594 275.570312 154.519531 275.570312 165.722656 Z M 275.570312 165.722656 " fill-opacity="1" fill-rule="nonzero"/><path fill="#67c3cf" d="M 146.722656 233.273438 C 146.722656 244.480469 145.246094 253.5625 134.042969 253.5625 L 112.394531 253.5625 C 101.191406 253.5625 99.546875 244.480469 99.546875 233.273438 C 99.546875 222.066406 101.191406 212.984375 112.394531 212.984375 L 134.042969 212.984375 C 145.246094 212.984375 146.722656 222.066406 146.722656 233.273438 Z M 146.722656 233.273438 " fill-opacity="1" fill-rule="nonzero"/><path fill="#67c3cf" d="M 211.144531 233.273438 C 211.144531 244.480469 209.671875 253.5625 198.464844 253.5625 L 176.820312 253.5625 C 165.617188 253.5625 163.96875 244.480469 163.96875 233.273438 C 163.96875 222.066406 165.617188 212.984375 176.820312 212.984375 L 198.464844 212.984375 C 209.667969 212.984375 211.144531 222.066406 211.144531 233.273438 Z M 211.144531 233.273438 " fill-opacity="1" fill-rule="nonzero"/><path fill="#67c3cf" d="M 275.570312 233.273438 C 275.570312 244.480469 274.09375 253.5625 262.886719 253.5625 L 241.242188 253.5625 C 230.035156 253.5625 228.394531 244.480469 228.394531 233.273438 C 228.394531 222.066406 230.035156 212.984375 241.242188 212.984375 L 262.886719 212.984375 C 274.09375 212.984375 275.570312 222.066406 275.570312 233.273438 Z M 275.570312 233.273438 " fill-opacity="1" fill-rule="nonzero"/><path fill="#67c3cf" d="M 146.722656 300.820312 C 146.722656 312.027344 145.246094 321.113281 134.042969 321.113281 L 112.394531 321.113281 C 101.191406 321.113281 99.546875 312.027344 99.546875 300.820312 C 99.546875 289.617188 101.191406 280.53125 112.394531 280.53125 L 134.042969 280.53125 C 145.246094 280.53125 146.722656 289.617188 146.722656 300.820312 Z M 146.722656 300.820312 " fill-opacity="1" fill-rule="nonzero"/><path fill="#67c3cf" d="M 211.144531 300.820312 C 211.144531 312.027344 209.671875 321.113281 198.464844 321.113281 L 176.820312 321.113281 C 165.617188 321.113281 163.96875 312.027344 163.96875 300.820312 C 163.96875 289.617188 165.617188 280.53125 176.820312 280.53125 L 198.464844 280.53125 C 209.667969 280.53125 211.144531 289.617188 211.144531 300.820312 Z M 211.144531 300.820312 " fill-opacity="1" fill-rule="nonzero"/><path fill="#67c3cf" d="M 275.570312 300.820312 C 275.570312 312.027344 274.09375 321.113281 262.886719 321.113281 L 241.242188 321.113281 C 230.035156 321.113281 228.394531 312.027344 228.394531 300.820312 C 228.394531 289.617188 230.035156 280.53125 241.242188 280.53125 L 262.886719 280.53125 C 274.09375 280.53125 275.570312 289.617188 275.570312 300.820312 Z M 275.570312 300.820312 " fill-opacity="1" fill-rule="nonzero"/></svg>